%FSLAX23Y23*%
%MOIN*%
G04 EasyPC Gerber Version 18.0.1 Build 3581 *
%ADD100R,0.03362X0.09660*%
%ADD28R,0.05528X0.06512*%
%ADD97R,0.06906X0.12811*%
%ADD102R,0.07890X0.12000*%
%ADD94R,0.12811X0.24622*%
%ADD98R,0.24622X0.26591*%
%ADD96R,0.07102X0.07102*%
%ADD10C,0.00800*%
%ADD72R,0.06512X0.05528*%
%ADD101C,0.07102*%
%ADD95C,0.07496*%
%ADD99C,0.12811*%
X0Y0D02*
D02*
D10*
X417Y924D02*
X2492D01*
Y2849*
X417*
Y924*
D02*
D28*
X1039Y2699D03*
X1119D03*
D02*
D72*
X654Y1659D03*
Y1739D03*
X854Y1659D03*
Y1739D03*
X1004Y1659D03*
Y1739D03*
X1204Y1659D03*
Y1739D03*
X1354Y1659D03*
Y1739D03*
X1554Y1659D03*
Y1739D03*
X1866Y2184D03*
Y2264D03*
Y2472D03*
Y2552D03*
X2054Y2622D03*
Y2702D03*
X2192Y1534D03*
Y1614D03*
Y1709D03*
Y1789D03*
X2254Y2334D03*
Y2414D03*
D02*
D94*
X2054Y1849D03*
D02*
D95*
X504Y1012D03*
Y1112D03*
Y1212D03*
Y1312D03*
Y1412D03*
Y1512D03*
Y1612D03*
Y1712D03*
Y1812D03*
Y1912D03*
Y2062D03*
Y2162D03*
Y2262D03*
Y2362D03*
Y2462D03*
Y2562D03*
Y2662D03*
Y2762D03*
X2404Y1362D03*
Y1462D03*
Y1562D03*
Y1662D03*
Y1762D03*
Y1862D03*
Y1962D03*
Y2062D03*
Y2262D03*
Y2362D03*
Y2462D03*
Y2562D03*
Y2662D03*
Y2762D03*
D02*
D96*
X654Y1512D03*
Y2562D03*
X754Y1512D03*
Y2562D03*
X854Y1512D03*
X1004D03*
X1104D03*
X1204D03*
X1354D03*
X1454D03*
X1554D03*
X1804Y1262D03*
D02*
D97*
X1727Y1524D03*
X1907D03*
D02*
D98*
X1816Y1774D03*
D02*
D99*
X804Y2212D03*
X1604D03*
D02*
D100*
X2017Y2272D03*
Y2476D03*
X2067Y2272D03*
Y2476D03*
X2117Y2272D03*
Y2476D03*
X2167Y2272D03*
Y2476D03*
D02*
D101*
X1904Y1262D03*
X2004Y2112D03*
X2104D03*
D02*
D102*
X652Y2712D03*
X856D03*
X1315D03*
X1519D03*
X1652D03*
X1856D03*
X0Y0D02*
M02*
