%FSLAX23Y23*%
%MOIN*%
G04 EasyPC Gerber Version 18.0.1 Build 3581 *
%ADD11C,0.00787*%
%ADD10C,0.00800*%
%ADD80C,0.10000*%
X0Y0D02*
D02*
D10*
X417Y924D02*
X2492D01*
Y2849*
X417*
Y924*
D02*
D11*
X604Y1071D02*
X620Y1108D01*
X635Y1071*
X610Y1087D02*
X629D01*
X604Y1171D02*
X620Y1208D01*
X635Y1171*
X610Y1187D02*
X629D01*
X604Y1271D02*
X620Y1308D01*
X635Y1271*
X610Y1287D02*
X629D01*
X604Y1371D02*
X620Y1408D01*
X635Y1371*
X610Y1387D02*
X629D01*
X604Y1471D02*
X620Y1508D01*
X635Y1471*
X610Y1487D02*
X629D01*
X604Y1571D02*
X620Y1608D01*
X635Y1571*
X610Y1587D02*
X629D01*
X604Y1671D02*
X620Y1708D01*
X635Y1671*
X610Y1687D02*
X629D01*
X604Y1771D02*
X620Y1808D01*
X635Y1771*
X610Y1787D02*
X629D01*
X604Y1871D02*
X620Y1908D01*
X635Y1871*
X610Y1887D02*
X629D01*
X604Y1971D02*
X620Y2008D01*
X635Y1971*
X610Y1987D02*
X629D01*
X604Y2121D02*
X620Y2158D01*
X635Y2121*
X610Y2137D02*
X629D01*
X604Y2221D02*
X620Y2258D01*
X635Y2221*
X610Y2237D02*
X629D01*
X604Y2321D02*
X620Y2358D01*
X635Y2321*
X610Y2337D02*
X629D01*
X604Y2421D02*
X620Y2458D01*
X635Y2421*
X610Y2437D02*
X629D01*
X604Y2521D02*
X620Y2558D01*
X635Y2521*
X610Y2537D02*
X629D01*
X604Y2621D02*
X620Y2658D01*
X635Y2621*
X610Y2637D02*
X629D01*
X604Y2721D02*
X620Y2758D01*
X635Y2721*
X610Y2737D02*
X629D01*
X604Y2821D02*
X620Y2858D01*
X635Y2821*
X610Y2837D02*
X629D01*
X754Y1571D02*
X770Y1608D01*
X785Y1571*
X760Y1587D02*
X779D01*
X754Y2621D02*
X770Y2658D01*
X785Y2621*
X760Y2637D02*
X779D01*
X854Y1571D02*
X870Y1608D01*
X885Y1571*
X860Y1587D02*
X879D01*
X854Y2621D02*
X870Y2658D01*
X885Y2621*
X860Y2637D02*
X879D01*
X926Y2290D02*
X932Y2287D01*
X935Y2280*
X932Y2274*
X926Y2271*
X904*
Y2308*
X926*
X932Y2305*
X935Y2299*
X932Y2293*
X926Y2290*
X904*
X954Y1571D02*
X970Y1608D01*
X985Y1571*
X960Y1587D02*
X979D01*
X1104Y1571D02*
X1120Y1608D01*
X1135Y1571*
X1110Y1587D02*
X1129D01*
X1204Y1571D02*
X1220Y1608D01*
X1235Y1571*
X1210Y1587D02*
X1229D01*
X1304Y1571D02*
X1320Y1608D01*
X1335Y1571*
X1310Y1587D02*
X1329D01*
X1454Y1571D02*
X1470Y1608D01*
X1485Y1571*
X1460Y1587D02*
X1479D01*
X1554Y1571D02*
X1570Y1608D01*
X1585Y1571*
X1560Y1587D02*
X1579D01*
X1654Y1571D02*
X1670Y1608D01*
X1685Y1571*
X1660Y1587D02*
X1679D01*
X1726Y2290D02*
X1732Y2287D01*
X1735Y2280*
X1732Y2274*
X1726Y2271*
X1704*
Y2308*
X1726*
X1732Y2305*
X1735Y2299*
X1732Y2293*
X1726Y2290*
X1704*
X1785Y2490D02*
X1782Y2487D01*
X1776Y2483*
X1766*
X1760Y2487*
X1757Y2490*
X1754Y2496*
Y2508*
X1757Y2515*
X1760Y2518*
X1766Y2521*
X1776*
X1782Y2518*
X1785Y2515*
Y2615D02*
X1782Y2612D01*
X1776Y2608*
X1766*
X1760Y2612*
X1757Y2615*
X1754Y2621*
Y2633*
X1757Y2640*
X1760Y2643*
X1766Y2646*
X1776*
X1782Y2643*
X1785Y2640*
X1910Y2615D02*
X1907Y2612D01*
X1901Y2608*
X1891*
X1885Y2612*
X1882Y2615*
X1879Y2621*
Y2633*
X1882Y2640*
X1885Y2643*
X1891Y2646*
X1901*
X1907Y2643*
X1910Y2640*
X1904Y1321D02*
X1920Y1358D01*
X1935Y1321*
X1910Y1337D02*
X1929D01*
X2035Y1327D02*
X2032Y1324D01*
X2026Y1321*
X2017*
X2010Y1324*
X2007Y1327*
X2004Y1333*
Y1346*
X2007Y1352*
X2010Y1355*
X2017Y1358*
X2026*
X2032Y1355*
X2035Y1352*
Y2077D02*
X2032Y2074D01*
X2026Y2071*
X2017*
X2010Y2074*
X2007Y2077*
X2004Y2083*
Y2096*
X2007Y2102*
X2010Y2105*
X2017Y2108*
X2026*
X2032Y2105*
X2035Y2102*
X2085Y2615D02*
X2082Y2612D01*
X2076Y2608*
X2067*
X2060Y2612*
X2057Y2615*
X2054Y2621*
Y2633*
X2057Y2640*
X2060Y2643*
X2067Y2646*
X2076*
X2082Y2643*
X2085Y2640*
X2135Y2177D02*
X2132Y2174D01*
X2126Y2171*
X2117*
X2110Y2174*
X2107Y2177*
X2104Y2183*
Y2196*
X2107Y2202*
X2110Y2205*
X2117Y2208*
X2126*
X2132Y2205*
X2135Y2202*
X2185Y2077D02*
X2182Y2074D01*
X2176Y2071*
X2167*
X2160Y2074*
X2157Y2077*
X2154Y2083*
Y2096*
X2157Y2102*
X2160Y2105*
X2167Y2108*
X2176*
X2182Y2105*
X2185Y2102*
X2235Y1602D02*
X2232Y1599D01*
X2226Y1596*
X2217*
X2210Y1599*
X2207Y1602*
X2204Y1608*
Y1621*
X2207Y1627*
X2210Y1630*
X2217Y1633*
X2226*
X2232Y1630*
X2235Y1627*
Y2177D02*
X2232Y2174D01*
X2226Y2171*
X2217*
X2210Y2174*
X2207Y2177*
X2204Y2183*
Y2196*
X2207Y2202*
X2210Y2205*
X2217Y2208*
X2226*
X2232Y2205*
X2235Y2202*
X2298Y2077D02*
X2295Y2074D01*
X2288Y2071*
X2279*
X2273Y2074*
X2270Y2077*
X2267Y2083*
Y2096*
X2270Y2102*
X2273Y2105*
X2279Y2108*
X2288*
X2295Y2105*
X2298Y2102*
X2504Y1421D02*
X2520Y1458D01*
X2535Y1421*
X2510Y1437D02*
X2529D01*
X2504Y1521D02*
X2520Y1558D01*
X2535Y1521*
X2510Y1537D02*
X2529D01*
X2504Y1621D02*
X2520Y1658D01*
X2535Y1621*
X2510Y1637D02*
X2529D01*
X2504Y1721D02*
X2520Y1758D01*
X2535Y1721*
X2510Y1737D02*
X2529D01*
X2504Y1821D02*
X2520Y1858D01*
X2535Y1821*
X2510Y1837D02*
X2529D01*
X2504Y1921D02*
X2520Y1958D01*
X2535Y1921*
X2510Y1937D02*
X2529D01*
X2504Y2021D02*
X2520Y2058D01*
X2535Y2021*
X2510Y2037D02*
X2529D01*
X2504Y2121D02*
X2520Y2158D01*
X2535Y2121*
X2510Y2137D02*
X2529D01*
X2504Y2321D02*
X2520Y2358D01*
X2535Y2321*
X2510Y2337D02*
X2529D01*
X2504Y2421D02*
X2520Y2458D01*
X2535Y2421*
X2510Y2437D02*
X2529D01*
X2504Y2521D02*
X2520Y2558D01*
X2535Y2521*
X2510Y2537D02*
X2529D01*
X2504Y2621D02*
X2520Y2658D01*
X2535Y2621*
X2510Y2637D02*
X2529D01*
X2504Y2721D02*
X2520Y2758D01*
X2535Y2721*
X2510Y2737D02*
X2529D01*
X2504Y2821D02*
X2520Y2858D01*
X2535Y2821*
X2510Y2837D02*
X2529D01*
D02*
D80*
X504Y1012D03*
Y1112D03*
Y1212D03*
Y1312D03*
Y1412D03*
Y1512D03*
Y1612D03*
Y1712D03*
Y1812D03*
Y1912D03*
Y2062D03*
Y2162D03*
Y2262D03*
Y2362D03*
Y2462D03*
Y2562D03*
Y2662D03*
Y2762D03*
X654Y1512D03*
Y2562D03*
X754Y1512D03*
Y2562D03*
X804Y2212D03*
X854Y1512D03*
X1004D03*
X1104D03*
X1204D03*
X1354D03*
X1454D03*
X1554D03*
X1604Y2212D03*
X1654Y2424D03*
Y2549D03*
X1779D03*
X1804Y1262D03*
X1904D03*
Y2012D03*
X1954Y2549D03*
X2004Y2112D03*
X2054Y2012D03*
X2104Y1537D03*
Y2112D03*
X2167Y2012D03*
X2404Y1362D03*
Y1462D03*
Y1562D03*
Y1662D03*
Y1762D03*
Y1862D03*
Y1962D03*
Y2062D03*
Y2262D03*
Y2362D03*
Y2462D03*
Y2562D03*
Y2662D03*
Y2762D03*
X0Y0D02*
M02*
