%FSLAX23Y23*%
%MOIN*%
G04 EasyPC Gerber Version 18.0.1 Build 3581 *
%ADD84R,0.06102X0.06102*%
%ADD10C,0.00800*%
%ADD13C,0.01181*%
%ADD92C,0.01969*%
%ADD93C,0.03937*%
%ADD91C,0.05512*%
%ADD89C,0.06102*%
%ADD83C,0.06496*%
%ADD87C,0.11811*%
X0Y0D02*
D02*
D10*
X417Y924D02*
X2492D01*
Y2849*
X417*
Y924*
X445Y952D02*
X2463D01*
Y2821*
X445*
Y952*
X483Y1062D02*
G75*
G02Y1162I21J50D01*
G01*
G75*
G02X486Y1263I21J50*
G01*
G75*
G02Y1360I18J49*
G01*
G75*
G02X483Y1462I18J51*
G01*
G75*
G02Y1562I21J50*
G01*
G75*
G02Y1662I21J50*
G01*
G75*
G02Y1762I21J50*
G01*
G75*
G02Y1862I21J50*
G01*
G75*
G02X450Y1912I21J50*
G01*
G75*
G02X558I54*
G01*
G75*
G02X525Y1862I-54*
G01*
G75*
G02Y1762I-21J-50*
G01*
G75*
G02Y1662I-21J-50*
G01*
G75*
G02Y1562I-21J-50*
G01*
G75*
G02Y1462I-21J-50*
G01*
G75*
G02X522Y1360I-21J-50*
G01*
G75*
G02Y1263I-18J-49*
G01*
G75*
G02X525Y1162I-18J-51*
G01*
G75*
G02Y1062I-21J-50*
G01*
G75*
G02X558Y1012I-21J-50*
G01*
G75*
G02X450I-54*
G01*
G75*
G02X483Y1062I54*
G01*
Y2112D02*
G75*
G02Y2212I21J50D01*
G01*
G75*
G02Y2312I21J50*
G01*
G75*
G02Y2412I21J50*
G01*
G75*
G02Y2512I21J50*
G01*
G75*
G02Y2612I21J50*
G01*
G75*
G02Y2712I21J50*
G01*
G75*
G02X450Y2762I21J50*
G01*
G75*
G02X558I54*
G01*
G75*
G02X525Y2712I-54*
G01*
G75*
G02Y2612I-21J-50*
G01*
G75*
G02Y2512I-21J-50*
G01*
G75*
G02Y2412I-21J-50*
G01*
G75*
G02Y2312I-21J-50*
G01*
G75*
G02Y2212I-21J-50*
G01*
G75*
G02Y2112I-21J-50*
G01*
G75*
G02X558Y2062I-21J-50*
G01*
G75*
G02X450I-54*
G01*
G75*
G02X483Y2112I54*
G01*
X702Y1461D02*
X604D01*
Y1562*
X702*
Y1564*
X906*
Y1459*
X702*
Y1461*
X806Y2509D02*
X602D01*
Y2614*
X806*
Y2509*
X725Y2212D02*
G75*
G02X883I79D01*
G01*
G75*
G02X725I-79*
G01*
X1052Y1461D02*
X954D01*
Y1562*
X1052*
Y1564*
X1256*
Y1459*
X1052*
Y1461*
X1402D02*
X1304D01*
Y1562*
X1402*
Y1564*
X1606*
Y1459*
X1402*
Y1461*
X1604Y2131D02*
G75*
G02Y2292J81D01*
G01*
G75*
G02Y2131J-81*
G01*
X1613Y2451D02*
Y2522D01*
G75*
G02X1605Y2549I41J27*
G01*
G75*
G02X1703I49*
G01*
G75*
G02X1695Y2522I-49*
G01*
Y2451*
G75*
G02X1702Y2434I-41J-27*
G01*
X1833Y2303*
G75*
G02X1845Y2274I-29J-29*
G01*
Y1904*
X1946Y1803*
X2369*
G75*
G02X2386Y1813I35J-41*
G01*
G75*
G02X2389Y1912I18J49*
G01*
G75*
G02X2386Y2010I15J50*
G01*
G75*
G02X2350Y2062I18J51*
G01*
G75*
G02X2458I54*
G01*
G75*
G02X2422Y2010I-54*
G01*
G75*
G02X2419Y1912I-18J-49*
G01*
G75*
G02X2422Y1813I-15J-50*
G01*
G75*
G02X2425Y1712I-18J-51*
G01*
G75*
G02Y1612I-21J-50*
G01*
G75*
G02Y1512I-21J-50*
G01*
G75*
G02Y1412I-21J-50*
G01*
G75*
G02X2458Y1362I-21J-50*
G01*
G75*
G02X2350I-54*
G01*
G75*
G02X2383Y1412I54*
G01*
G75*
G02Y1512I21J50*
G01*
G75*
G02Y1612I21J50*
G01*
G75*
G02Y1712I21J50*
G01*
G75*
G02X2369Y1720I21J50*
G01*
X1929*
G75*
G02X1900Y1732J41*
G01*
X1775Y1857*
G75*
G02X1763Y1887I29J29*
G01*
Y2257*
X1644Y2376*
G75*
G02X1613Y2451I10J48*
G01*
X1732Y2549D02*
G75*
G02X1826I47D01*
G01*
G75*
G02X1732I-47*
G01*
X1856Y1246D02*
Y1209D01*
X1752*
Y1314*
X1856*
Y1277*
G75*
G02X1904Y1312I48J-16*
G01*
G75*
G02Y1211J-50*
G01*
G75*
G02X1856Y1246J50*
G01*
X1857Y2012D02*
G75*
G02X1951I47D01*
G01*
G75*
G02X1857I-47*
G01*
X1907Y2549D02*
G75*
G02X2001I47D01*
G01*
G75*
G02X1907I-47*
G01*
X2007Y2012D02*
G75*
G02X2101I47D01*
G01*
G75*
G02X2007I-47*
G01*
X2054Y2096D02*
G75*
G02X2004Y2059I-50J15D01*
G01*
G75*
G02Y2164J52*
G01*
G75*
G02X2054Y2127J-52*
G01*
G75*
G02X2104Y2164I50J-15*
G01*
G75*
G02Y2059J-52*
G01*
G75*
G02X2054Y2096J52*
G01*
X2057Y1537D02*
G75*
G02X2151I47D01*
G01*
G75*
G02X2057I-47*
G01*
X2119Y2012D02*
G75*
G02X2214I47D01*
G01*
G75*
G02X2119I-47*
G01*
X2383Y2312D02*
G75*
G02Y2412I21J50D01*
G01*
G75*
G02Y2512I21J50*
G01*
G75*
G02Y2612I21J50*
G01*
G75*
G02Y2712I21J50*
G01*
G75*
G02X2350Y2762I21J50*
G01*
G75*
G02X2458I54*
G01*
G75*
G02X2425Y2712I-54*
G01*
G75*
G02Y2612I-21J-50*
G01*
G75*
G02Y2512I-21J-50*
G01*
G75*
G02Y2412I-21J-50*
G01*
G75*
G02Y2312I-21J-50*
G01*
G75*
G02X2458Y2262I-21J-50*
G01*
G75*
G02X2350I-54*
G01*
G75*
G02X2383Y2312I54*
G01*
X445Y1462D02*
G36*
Y1262D01*
X483*
G75*
G02X486Y1263I21J-50*
G01*
G75*
G02Y1360I18J49*
G01*
G75*
G02X483Y1462I18J51*
G01*
X445*
G37*
X483D02*
G36*
G75*
G02X456Y1537I21J50D01*
G01*
X445*
Y1462*
X483*
G37*
X525D02*
G36*
G75*
G02X522Y1360I-21J-50D01*
G01*
G75*
G02Y1263I-18J-49*
G01*
G75*
G02X525Y1262I-18J-51*
G01*
X1752*
Y1314*
X1856*
Y1277*
G75*
G02X1904Y1312I48J-16*
G01*
G75*
G02X1954Y1262J-50*
G01*
X2463*
Y1462*
X2458*
G75*
G02X2425Y1412I-54*
G01*
G75*
G02X2458Y1362I-21J-50*
G01*
G75*
G02X2350I-54*
G01*
G75*
G02X2383Y1412I54*
G01*
G75*
G02X2350Y1462I21J50*
G01*
X1606*
Y1459*
X1402*
Y1461*
X1304*
Y1462*
X1256*
Y1459*
X1052*
Y1461*
X954*
Y1462*
X906*
Y1459*
X702*
Y1461*
X604*
Y1462*
X525*
G37*
X604D02*
G36*
Y1537D01*
X552*
G75*
G02X525Y1462I-48J-25*
G01*
X604*
G37*
X954D02*
G36*
Y1537D01*
X906*
Y1462*
X954*
G37*
X1304D02*
G36*
Y1537D01*
X1256*
Y1462*
X1304*
G37*
X2350D02*
G36*
G75*
G02X2383Y1512I54D01*
G01*
G75*
G02X2356Y1537I21J50*
G01*
X2151*
G75*
G02X2057I-47*
G01*
X1606*
Y1462*
X2350*
G37*
X2463D02*
G36*
Y1537D01*
X2452*
G75*
G02X2425Y1512I-48J25*
G01*
G75*
G02X2458Y1462I-21J-50*
G01*
X2463*
G37*
X445Y2412D02*
G36*
Y2212D01*
X483*
G75*
G02Y2312I21J50*
G01*
G75*
G02Y2412I21J50*
G01*
X445*
G37*
X483D02*
G36*
G75*
G02Y2512I21J50D01*
G01*
G75*
G02X450Y2562I21J50*
G01*
X445*
Y2412*
X483*
G37*
X525D02*
G36*
G75*
G02Y2312I-21J-50D01*
G01*
G75*
G02Y2212I-21J-50*
G01*
X725*
G75*
G02X883I79*
G01*
X1523*
G75*
G02X1604Y2292I81*
G01*
G75*
G02X1685Y2212J-81*
G01*
X1763*
Y2257*
X1644Y2376*
G75*
G02X1606Y2412I10J48*
G01*
X525*
G37*
X1606D02*
G36*
G75*
G02X1613Y2451I48J13D01*
G01*
Y2522*
G75*
G02X1605Y2549I41J27*
G01*
G75*
G02X1606Y2562I49J0*
G01*
X806*
Y2509*
X602*
Y2562*
X558*
G75*
G02X525Y2512I-54*
G01*
G75*
G02Y2412I-21J-50*
G01*
X1606*
G37*
X1725D02*
G36*
X1833Y2303D01*
G75*
G02X1845Y2274I-29J-29*
G01*
Y2212*
X2383*
G75*
G02X2350Y2262I21J50*
G01*
G75*
G02X2383Y2312I54*
G01*
G75*
G02Y2412I21J50*
G01*
X1725*
G37*
X2383D02*
G36*
G75*
G02Y2512I21J50D01*
G01*
G75*
G02X2350Y2562I21J50*
G01*
X2000*
G75*
G02X2001Y2549I-46J-13*
G01*
G75*
G02X1907I-47*
G01*
G75*
G02X1908Y2562I47*
G01*
X1825*
G75*
G02X1826Y2549I-46J-13*
G01*
G75*
G02X1732I-47*
G01*
G75*
G02X1733Y2562I47*
G01*
X1702*
G75*
G02X1703Y2549I-48J-12*
G01*
G75*
G02X1695Y2522I-49*
G01*
Y2451*
G75*
G02X1702Y2434I-41J-27*
G01*
X1725Y2412*
X2383*
G37*
X2425D02*
G36*
G75*
G02Y2312I-21J-50D01*
G01*
G75*
G02X2458Y2262I-21J-50*
G01*
G75*
G02X2425Y2212I-54*
G01*
X2463*
Y2412*
X2425*
G37*
X2463D02*
G36*
Y2562D01*
X2458*
G75*
G02X2425Y2512I-54*
G01*
G75*
G02Y2412I-21J-50*
G01*
X2463*
G37*
X450Y2562D02*
G36*
G75*
G02X483Y2612I54D01*
G01*
G75*
G02Y2712I21J50*
G01*
G75*
G02X450Y2762I21J50*
G01*
G75*
G02X558I54*
G01*
G75*
G02X525Y2712I-54*
G01*
G75*
G02Y2612I-21J-50*
G01*
G75*
G02X558Y2562I-21J-50*
G01*
X602*
Y2614*
X806*
Y2562*
X1606*
G75*
G02X1702I48J-13*
G01*
X1733*
G75*
G02X1825I46J-13*
G01*
X1908*
G75*
G02X2000I46J-13*
G01*
X2350*
G75*
G02X2383Y2612I54*
G01*
G75*
G02Y2712I21J50*
G01*
G75*
G02X2350Y2762I21J50*
G01*
G75*
G02X2458I54*
G01*
G75*
G02X2425Y2712I-54*
G01*
G75*
G02Y2612I-21J-50*
G01*
G75*
G02X2458Y2562I-21J-50*
G01*
X2463*
Y2821*
X445*
Y2562*
X450*
G37*
X445Y2212D02*
G36*
Y2112D01*
X483*
G75*
G02Y2212I21J50*
G01*
X445*
G37*
X525D02*
G36*
G75*
G02Y2112I-21J-50D01*
G01*
X1763*
Y2212*
X1685*
G75*
G02X1604Y2131I-81*
G01*
G75*
G02X1523Y2212J81*
G01*
X883*
G75*
G02X725I-79*
G01*
X525*
G37*
X1845D02*
G36*
Y2112D01*
X1952*
G75*
G02X2004Y2164I52*
G01*
G75*
G02X2054Y2127J-52*
G01*
G75*
G02X2104Y2164I50J-15*
G01*
G75*
G02X2156Y2112J-52*
G01*
X2383*
G75*
G02X2425I21J-50*
G01*
X2463*
Y2212*
X2425*
G75*
G02X2383I-21J50*
G01*
X1845*
G37*
X445Y1262D02*
G36*
Y952D01*
X2463*
Y1262*
X1954*
G75*
G02X1904Y1211I-50*
G01*
G75*
G02X1856Y1246J50*
G01*
Y1209*
X1752*
Y1262*
X525*
G75*
G02X525Y1162I-21J-50*
G01*
G75*
G02Y1062I-21J-50*
G01*
G75*
G02X558Y1012I-21J-50*
G01*
G75*
G02X450I-54*
G01*
G75*
G02X483Y1062I54*
G01*
G75*
G02Y1162I21J50*
G01*
G75*
G02X483Y1262I21J50*
G01*
X445*
G37*
Y2012D02*
G36*
Y1537D01*
X456*
G75*
G02X483Y1562I48J-25*
G01*
G75*
G02Y1662I21J50*
G01*
G75*
G02Y1762I21J50*
G01*
G75*
G02Y1862I21J50*
G01*
G75*
G02X450Y1912I21J50*
G01*
G75*
G02X558I54*
G01*
G75*
G02X525Y1862I-54*
G01*
G75*
G02Y1762I-21J-50*
G01*
G75*
G02Y1662I-21J-50*
G01*
G75*
G02Y1562I-21J-50*
G01*
G75*
G02X552Y1537I-21J-50*
G01*
X604*
Y1562*
X702*
Y1564*
X906*
Y1537*
X954*
Y1562*
X1052*
Y1564*
X1256*
Y1537*
X1304*
Y1562*
X1402*
Y1564*
X1606*
Y1537*
X2057*
G75*
G02X2151I47*
G01*
X2356*
G75*
G02X2383Y1612I48J25*
G01*
G75*
G02Y1712I21J50*
G01*
G75*
G02X2369Y1720I21J50*
G01*
X1929*
G75*
G02X1900Y1732J41*
G01*
X1775Y1857*
G75*
G02X1763Y1887I29J29*
G01*
Y2012*
X525*
G75*
G02X483I-21J50*
G01*
X445*
G37*
X483D02*
G36*
G75*
G02X450Y2062I21J50D01*
G01*
G75*
G02X483Y2112I54*
G01*
X445*
Y2012*
X483*
G37*
X1763D02*
G36*
Y2112D01*
X525*
G75*
G02X558Y2062I-21J-50*
G01*
G75*
G02X525Y2012I-54*
G01*
X1763*
G37*
X1845D02*
G36*
Y1904D01*
X1946Y1803*
X2369*
G75*
G02X2386Y1813I35J-41*
G01*
G75*
G02X2389Y1912I18J49*
G01*
G75*
G02X2386Y2010I15J50*
G01*
G75*
G02X2383Y2012I18J51*
G01*
X2214*
G75*
G02X2119I-47*
G01*
X2101*
G75*
G02X2007I-47*
G01*
X1951*
G75*
G02X1857I-47*
G01*
X1845*
G37*
X1857D02*
G36*
G75*
G02X1951I47D01*
G01*
X2007*
G75*
G02X2101I47*
G01*
X2119*
G75*
G02X2214I47*
G01*
X2383*
G75*
G02X2350Y2062I21J50*
G01*
G75*
G02X2383Y2112I54*
G01*
X2156*
G75*
G02X2104Y2059I-52*
G01*
G75*
G02X2054Y2096J52*
G01*
G75*
G02X2004Y2059I-50J15*
G01*
G75*
G02X1952Y2112J52*
G01*
X1845*
Y2012*
X1857*
G37*
X2425D02*
G36*
G75*
G02X2422Y2010I-21J50D01*
G01*
G75*
G02X2419Y1912I-18J-49*
G01*
G75*
G02X2422Y1813I-15J-50*
G01*
G75*
G02X2425Y1712I-18J-51*
G01*
G75*
G02Y1612I-21J-50*
G01*
G75*
G02X2452Y1537I-21J-50*
G01*
X2463*
Y2012*
X2425*
G37*
X2463D02*
G36*
Y2112D01*
X2425*
G75*
G02X2458Y2062I-21J-50*
G01*
G75*
G02X2425Y2012I-54*
G01*
X2463*
G37*
D02*
D13*
X485Y1293D02*
X466Y1273D01*
X485Y1330D02*
X466Y1350D01*
X523Y1293D02*
X542Y1273D01*
X523Y1330D02*
X542Y1350D01*
X629Y1512D02*
X602D01*
X654Y1487D02*
Y1459D01*
Y1536D02*
Y1564D01*
X751Y2212D02*
X723D01*
X804Y2158D02*
Y2131D01*
Y2265D02*
Y2292D01*
X857Y2212D02*
X885D01*
X979Y1512D02*
X952D01*
X1004Y1487D02*
Y1459D01*
Y1536D02*
Y1564D01*
X1329Y1512D02*
X1302D01*
X1354Y1487D02*
Y1459D01*
Y1536D02*
Y1564D01*
X1757Y2549D02*
X1730D01*
X1779Y2527D02*
Y2500D01*
Y2571D02*
Y2598D01*
X1801Y2549D02*
X1828D01*
X1882Y2012D02*
X1855D01*
X1887Y1244D02*
X1867Y1225D01*
X1887Y1279D02*
X1867Y1298D01*
X1904Y1990D02*
Y1962D01*
Y2033D02*
Y2061D01*
X1921Y1244D02*
X1941Y1225D01*
X1921Y1279D02*
X1941Y1298D01*
X1926Y2012D02*
X1953D01*
X1932Y2549D02*
X1905D01*
X1954Y2527D02*
Y2500D01*
Y2571D02*
Y2598D01*
X1976Y2549D02*
X2003D01*
X2032Y2012D02*
X2005D01*
X2054Y1990D02*
Y1962D01*
Y2033D02*
Y2061D01*
X2076Y2012D02*
X2103D01*
X2082Y1537D02*
X2055D01*
X2104Y1515D02*
Y1487D01*
Y1558D02*
Y1586D01*
X2126Y1537D02*
X2153D01*
X2145Y2012D02*
X2117D01*
X2167Y1990D02*
Y1962D01*
Y2033D02*
Y2061D01*
X2188Y2012D02*
X2216D01*
X2385Y1843D02*
X2366Y1823D01*
X2385Y1880D02*
X2366Y1900D01*
X2385Y1943D02*
X2366Y1923D01*
X2385Y1980D02*
X2366Y2000D01*
X2423Y1843D02*
X2442Y1823D01*
X2423Y1880D02*
X2442Y1900D01*
X2423Y1943D02*
X2442Y1923D01*
X2423Y1980D02*
X2442Y2000D01*
D02*
D83*
X504Y1012D03*
Y1112D03*
Y1212D03*
Y1312D03*
Y1412D03*
Y1512D03*
Y1612D03*
Y1712D03*
Y1812D03*
Y1912D03*
Y2062D03*
Y2162D03*
Y2262D03*
Y2362D03*
Y2462D03*
Y2562D03*
Y2662D03*
Y2762D03*
X2404Y1362D03*
Y1462D03*
Y1562D03*
Y1662D03*
Y1762D03*
Y1862D03*
Y1962D03*
Y2062D03*
Y2262D03*
Y2362D03*
Y2462D03*
Y2562D03*
Y2662D03*
Y2762D03*
D02*
D84*
X654Y1512D03*
Y2562D03*
X754Y1512D03*
Y2562D03*
X854Y1512D03*
X1004D03*
X1104D03*
X1204D03*
X1354D03*
X1454D03*
X1554D03*
X1804Y1262D03*
D02*
D87*
X804Y2212D03*
X1604D03*
D02*
D89*
X1904Y1262D03*
X2004Y2112D03*
X2104D03*
D02*
D91*
X1654Y2424D03*
Y2549D03*
X1779D03*
X1904Y2012D03*
X1954Y2549D03*
X2054Y2012D03*
X2104Y1537D03*
X2167Y2012D03*
D02*
D92*
X1779Y2549D02*
X1954D01*
D02*
D93*
X1654Y2424D02*
Y2549D01*
Y2424D02*
X1804Y2274D01*
Y1887*
X1929Y1762*
X2404*
X1904Y1262D02*
Y1462D01*
X1979Y1537*
X2104*
X2054Y2012D02*
X2254D01*
X2304Y1962*
X2404*
X0Y0D02*
M02*
